<svg width="93px" height="79px" viewBox="0 0 93 79" version="1.1" xmlns="http://www.w3.org/2000/svg" xmlns:xlink="http://www.w3.org/1999/xlink" data-di-rand="1732464026740" role="presentation" aria-hidden="true" tabindex="-1" data-di-res-id="19f82178-ab859935">
                                        <title>Tommy Hilfiger Gift icon</title>
                                        <desc>Tommy Hilfiger Gift icon</desc>
                                        <g id="R1" stroke="none" stroke-width="1" fill="none" fill-rule="evenodd">
                                            <g id="23.Newsletters_Sign-Up-Footer_OPT1" transform="translate(-121.000000, -95.000000)">
                                                <g id="Group-4" transform="translate(121.000000, 94.000000)">
                                                    <rect id="Rectangle" fill="#00174F" x="0" y="19" width="93" height="61"></rect>
                                                    <rect id="Rectangle" fill="#FFFFFF" x="2" y="36" width="44" height="27"></rect>
                                                    <rect id="Rectangle-Copy" fill="#CC0C2F" x="46" y="36" width="44" height="27"></rect>
                                                    <g id="Group-3" transform="translate(18.000000, 0.000000)" stroke="#00174F" stroke-width="4">
                                                        <g id="Group-2">
                                                            <path d="M26.1847188,3.51601495 C29.8901997,5.9265511 28.0343878,10.1663802 22.416316,14.0939344 C18.6709348,16.7123039 11.7420105,18.9084472 1.62954305,20.6823644 C3.89444526,13.8033501 6.89958695,9.05465823 10.6449681,6.43628878 C16.2630399,2.5087346 22.4792379,1.1054788 26.1847188,3.51601495 Z" id="Path-2" transform="translate(14.869270, 11.505660) scale(-1, 1) rotate(6.000000) translate(-14.869270, -11.505660) ">
                                                            </path>
                                                        </g>
                                                        <g id="Group-2" transform="translate(29.000000, 0.000000)">
                                                            <path d="M25.4461783,3.51601495 C29.1516592,5.9265511 27.2958473,10.1663802 21.6777755,14.0939344 C17.9323944,16.7123039 11.00347,18.9084472 0.891002575,20.6823644 C3.15590478,13.8033501 6.16104648,9.05465823 9.90642766,6.43628878 C15.5244994,2.5087346 21.7406974,1.1054788 25.4461783,3.51601495 Z" id="Path-2" transform="translate(14.130730, 11.505660) rotate(6.000000) translate(-14.130730, -11.505660) ">
                                                            </path>
                                                        </g>
                                                    </g>
                                                </g>
                                            </g>
                                        </g>
                                    </svg>